<?xml version="1.0" encoding="utf-8"?>
<svg viewBox="0 2 28 28" fill="none" xmlns="http://www.w3.org/2000/svg">
  <path d="M27.9894 17.3814C26.0498 9.62055 19.3978 3.35776 12.384 7.20499C12.384 7.20499 8.85016 6.0359 8.34063 5.68267C7.84439 5.33882 7.06291 4.97621 7.62792 6.02339C7.95848 6.63451 8.31171 7.33003 9.50582 8.61557C6.10794 11.9923 7.10745 16.1373 5.9071 18.8631C4.88804 21.1779 3.89322 22.5619 4.88336 24.3147C5.91257 26.1356 8.57898 27.0202 10.3678 25.1431C11.34 24.1217 10.7359 23.6294 12.8154 21.8593C14.9434 21.435 16.2492 20.4597 16.2492 18.4404C16.2492 18.4404 16.8705 18.1418 17.6762 23.1363C18.0326 25.3385 17.5535 27.5376 17.6457 30H27.9894V17.3814Z" fill="#C1CDD5"/>
  <path d="M24.79 6.60326C25.2049 7.62856 25.4527 9.50255 25.255 10.7592C25.1377 7.69343 22.7636 5.61625 21.8352 5.13798C20.1144 4.24944 18.4186 4.37291 16.5219 4.53468C16.6087 4.66597 16.8368 5.1708 16.772 5.74363C16.3977 5.05983 15.5185 4.63393 14.9488 4.75037C13.886 4.96684 12.9474 5.27943 12.2331 5.65376C11.8393 5.73347 11.2571 5.97651 10.3795 6.51417C8.88605 7.42928 7.11678 9.90424 5.11462 9.25795C5.92893 11.2117 7.95218 10.6998 7.95218 10.6998C8.89543 9.1759 11.1305 7.74657 12.7724 7.22063C18.7265 5.85694 22.63 9.90814 24.8314 14.565C25.4316 15.8349 26.8718 20.1385 27.9894 22.608V10.4278C27.404 9.61665 26.9883 8.06932 24.79 6.60326Z" fill="#60379A"/>
  <path d="M10.6319 4.7277C11.0797 5.34351 13.1608 5.3482 14.2236 7.71296C15.2856 10.0777 12.7052 9.76825 11.7697 8.67418C10.7272 7.45429 10.2607 6.4368 10.0778 5.55451C9.98092 5.08874 9.72537 3.48436 10.6319 4.7277Z" fill="#C1CDD5"/>
  <path d="M10.9601 5.74362C11.7072 6.19141 12.6513 6.92757 12.9271 7.77235C13.2014 8.61713 12.3746 8.46865 11.8729 7.73953C11.372 7.00962 11.1383 6.1961 10.8687 5.97103C10.5983 5.74518 10.9601 5.74362 10.9601 5.74362Z" fill="#758795"/>
  <path d="M11.7776 13.9875C12.1858 13.9875 12.5168 13.6565 12.5168 13.2482C12.5168 12.8399 12.1858 12.5089 11.7776 12.5089C11.3693 12.5089 11.0383 12.8399 11.0383 13.2482C11.0383 13.6565 11.3693 13.9875 11.7776 13.9875Z" fill="#292F33"/>
  <path d="M6.60026 22.8698C6.69326 23.384 6.45881 23.8568 6.07667 23.9255C5.69374 23.9951 5.30769 23.6348 5.21391 23.1206C5.12092 22.6056 5.35614 22.132 5.73829 22.0625C6.12121 21.9937 6.50727 22.354 6.60026 22.8698Z" fill="#53626C"/>
  <path d="M10.6749 8.21465L10.6772 8.21309L10.6733 8.20762L10.6608 8.19668C10.6546 8.19121 10.6522 8.18183 10.646 8.17714C10.6389 8.17167 10.6296 8.16855 10.6218 8.16308C9.71914 7.39722 0.585186 1.47907 0.0272084 2.03704C-0.542492 2.60674 8.01708 9.47909 8.5688 9.89953L8.5774 9.90422L9.00018 10.2473C9.00643 10.2528 9.00799 10.2614 9.01425 10.266C9.0244 10.2739 9.03613 10.2778 9.04707 10.2848L9.0838 10.3145L9.07676 10.302C9.5183 10.5841 10.1919 10.3911 10.6233 9.83935C11.0602 9.2806 11.0742 8.56945 10.6749 8.21465Z" fill="#EE7C0E"/>
  <path d="M3.51106 3.62424L3.51809 3.6047C3.28286 3.46872 3.05389 3.33821 2.83195 3.21396C2.81944 3.24366 2.81476 3.26788 2.79991 3.29992C2.71238 3.48982 2.59985 3.67816 2.46465 3.85946C2.33493 4.03451 2.19192 4.19081 2.04187 4.32444C2.02624 4.33851 2.01374 4.34476 1.99811 4.35805C2.1841 4.52997 2.38025 4.70659 2.58031 4.88633C2.76318 4.72222 2.93667 4.53544 3.0914 4.32601C3.25864 4.10172 3.40009 3.86571 3.51106 3.62424ZM5.28893 5.9257C5.52806 5.60529 5.69608 5.28332 5.8047 4.97854C5.57651 4.8371 5.34832 4.69721 5.12013 4.55811C5.06073 4.79099 4.9271 5.10436 4.66218 5.45837C4.41992 5.78425 4.18313 5.99056 3.98698 6.11873C4.18938 6.293 4.39335 6.46648 4.59575 6.63841C4.84114 6.44773 5.07949 6.20703 5.28893 5.9257ZM7.56929 7.58635C7.85453 7.20342 8.04521 6.81815 8.1429 6.46336L7.43487 6.00541C7.4169 6.23673 7.30046 6.63841 6.94176 7.11902C6.61979 7.55196 6.30016 7.78094 6.08213 7.88331L6.71826 8.40768C7.016 8.20763 7.31296 7.9302 7.56929 7.58635Z" fill="#C43512"/>
</svg>